<svg width="103" height="42" xmlns="http://www.w3.org/2000/svg" fill="#0f3054">

 <g>
  <title>Layer 1</title>
  <path id="svg_1" d="m0,5.42188l0.375,-1.875l1.23437,0l0.3125,-1.5l2.89063,-1.73438l-0.67188,3.23438l1.53125,0l-0.375,1.875l-1.54687,0l-0.82813,3.92187c-0.14843,0.71094 -0.21875,1.10938 -0.21875,1.20313c0,0.19921 0.0625,0.35546 0.1875,0.46875c0.125,0.10546 0.34766,0.15625 0.67188,0.15625c0.10156,0 0.3789,-0.01953 0.82812,-0.0625l-0.39062,1.875c-0.4375,0.08202 -0.88672,0.125 -1.34375,0.125c-0.88672,0 -1.53125,-0.17188 -1.9375,-0.51563c-0.40625,-0.34375 -0.60938,-0.81641 -0.60938,-1.42187c0,-0.28907 0.10938,-0.95704 0.32813,-2l0.78125,-3.75l-1.21875,0zm0,0"/>
  <path id="svg_2" d="m7.91983,12.89063l-2.53125,0l2.70312,-12.89063l2.53125,0l-0.96875,4.59375c0.57032,-0.44531 1.10157,-0.76953 1.59375,-0.96875c0.48828,-0.19531 1.01563,-0.29687 1.57813,-0.29687c0.75781,0 1.35937,0.21875 1.79687,0.65625c0.4375,0.42968 0.65625,0.99609 0.65625,1.70312c0,0.375 -0.08594,0.95313 -0.25,1.73438l-1.14062,5.46875l-2.51563,0l1.17188,-5.5625c0.11328,-0.60157 0.17187,-0.99219 0.17187,-1.17188c0,-0.3125 -0.10156,-0.5625 -0.29687,-0.75c-0.1875,-0.1875 -0.44922,-0.28125 -0.78125,-0.28125c-0.41797,0 -0.82422,0.15234 -1.21875,0.45313c-0.5,0.38671 -0.88281,0.85937 -1.14063,1.42187c-0.14843,0.3125 -0.33984,1.04297 -0.57812,2.1875l-0.78125,3.70313zm0,0"/>
  <path id="svg_3" d="m25.45321,9l-6.32812,0c-0.01172,0.10547 -0.01563,0.18359 -0.01563,0.23438c0,0.61718 0.17578,1.11718 0.53125,1.5c0.36328,0.38671 0.79687,0.57812 1.29687,0.57812c0.84375,0 1.5,-0.4375 1.96875,-1.3125l2.26563,0.39063c-0.44922,0.90625 -1.04297,1.58984 -1.78125,2.04687c-0.73047,0.44922 -1.55469,0.67188 -2.46875,0.67188c-1.25,0 -2.27344,-0.39454 -3.0625,-1.1875c-0.78125,-0.78907 -1.17188,-1.84375 -1.17188,-3.15625c0,-1.28125 0.35157,-2.41407 1.0625,-3.40625c0.96875,-1.35157 2.34766,-2.03125 4.14063,-2.03125c1.14453,0 2.05469,0.35546 2.73437,1.0625c0.67578,0.71093 1.01563,1.69921 1.01563,2.96875c0,0.60546 -0.0625,1.15234 -0.1875,1.64062zm-2.125,-1.53125c0.0078,-0.11328 0.01563,-0.20312 0.01563,-0.26562c0,-0.6875 -0.15625,-1.20313 -0.46875,-1.54688c-0.3125,-0.35156 -0.73046,-0.53125 -1.25,-0.53125c-0.52343,0 -0.99218,0.19922 -1.40625,0.59375c-0.41796,0.39844 -0.69921,0.98047 -0.84375,1.75l3.95312,0zm0,0"/>
  <path id="svg_4" d="m4.25774,26.73678l-2.17187,0l-1.875,-9.34375l2.48437,0l0.65625,4.07812c0.1875,1.10547 0.29688,1.83984 0.32813,2.20313c0.03906,-0.10157 0.24218,-0.48438 0.60937,-1.14063c0.36328,-0.66406 0.58594,-1.06641 0.67188,-1.20312l2.3125,-3.9375l2.73437,0l-5.75,9.34375zm0,0"/>
  <path id="svg_5" d="m12.29048,13.84615l2.53125,0l-0.46875,2.28125l-2.53125,0l0.46875,-2.28125zm-0.73437,3.54688l2.53125,0l-1.95313,9.34375l-2.53125,0l1.95313,-9.34375zm0,0"/>
  <path id="svg_6" d="m14.27904,24.1274l2.45313,-0.39062c0.21875,0.52343 0.48828,0.89062 0.8125,1.10937c0.32031,0.21094 0.75781,0.3125 1.3125,0.3125c0.57031,0 1.03125,-0.12891 1.375,-0.39062c0.25,-0.17579 0.375,-0.39063 0.375,-0.64063c0,-0.17578 -0.0625,-0.32812 -0.1875,-0.45312c-0.13672,-0.13282 -0.48438,-0.29688 -1.04688,-0.48438c-1.53125,-0.5 -2.48047,-0.89453 -2.84375,-1.1875c-0.5625,-0.45703 -0.84375,-1.05469 -0.84375,-1.79687c0,-0.73829 0.27344,-1.375 0.82813,-1.90625c0.76953,-0.75 1.91015,-1.125 3.42187,-1.125c1.19531,0 2.10156,0.21875 2.71875,0.65625c0.61328,0.4375 1.00391,1.03906 1.17188,1.79687l-2.32813,0.39063c-0.125,-0.33204 -0.32422,-0.58594 -0.59375,-0.76563c-0.375,-0.21875 -0.82812,-0.32812 -1.35937,-0.32812c-0.53125,0 -0.91407,0.08984 -1.14063,0.26562c-0.23047,0.16797 -0.34375,0.36719 -0.34375,0.59375c0,0.24219 0.11328,0.43359 0.34375,0.57813c0.14453,0.09375 0.61719,0.26171 1.42188,0.5c1.22656,0.35546 2.05078,0.70312 2.46875,1.04687c0.59375,0.49219 0.89062,1.07813 0.89062,1.76563c0,0.88671 -0.375,1.65625 -1.125,2.3125c-0.74219,0.64843 -1.79297,0.96875 -3.15625,0.96875c-1.34375,0 -2.38672,-0.24219 -3.125,-0.73438c-0.73047,-0.5 -1.23047,-1.19531 -1.5,-2.09375zm0,0"/>
  <path id="svg_7" d="m26.56179,17.39303l2.53125,0l-1.15625,5.53125c-0.14844,0.66796 -0.21875,1.08593 -0.21875,1.25c0,0.27343 0.09766,0.50781 0.29687,0.70312c0.20703,0.1875 0.46094,0.28125 0.76563,0.28125c0.22656,0 0.45312,-0.03906 0.67187,-0.125c0.21875,-0.09375 0.4375,-0.22266 0.65625,-0.39062c0.22656,-0.17579 0.42969,-0.375 0.60938,-0.59375c0.1875,-0.22657 0.36328,-0.52344 0.53125,-0.89063c0.10156,-0.25781 0.22265,-0.69531 0.35937,-1.3125l0.92188,-4.45312l2.53125,0l-1.95313,9.34375l-2.35937,0l0.26562,-1.26563c-1.03125,0.99219 -2.15625,1.48438 -3.375,1.48438c-0.76172,0 -1.36719,-0.21875 -1.8125,-0.65625c-0.4375,-0.4375 -0.65625,-1.02344 -0.65625,-1.76563c0,-0.32031 0.09766,-0.96875 0.29688,-1.9375l1.09375,-5.20312zm0,0"/>
  <path id="svg_8" d="m39.18889,20.04928l-2.45312,-0.21875c0.28125,-0.83204 0.76953,-1.48438 1.46875,-1.95313c0.69531,-0.46875 1.625,-0.70312 2.78125,-0.70312c1.19531,0 2.08203,0.24609 2.65625,0.73437c0.58203,0.48047 0.875,1.07031 0.875,1.76563c0,0.28125 -0.02734,0.58593 -0.07813,0.90625c-0.05469,0.3125 -0.22657,1.14062 -0.51563,2.48437c-0.25,1.11719 -0.375,1.89844 -0.375,2.34375c0,0.39844 0.06641,0.83984 0.20313,1.32813l-2.45313,0c-0.09375,-0.34375 -0.15625,-0.69532 -0.1875,-1.0625c-0.36719,0.41796 -0.78906,0.73437 -1.26562,0.95312c-0.48047,0.21875 -0.96485,0.32813 -1.45313,0.32813c-0.77344,0 -1.41406,-0.25 -1.92187,-0.75c-0.5,-0.50782 -0.75,-1.16407 -0.75,-1.96875c0,-0.88282 0.27343,-1.59375 0.82812,-2.125c0.55078,-0.53907 1.53906,-0.86719 2.96875,-0.98438c1.19531,-0.09375 2,-0.21094 2.40625,-0.35937c0.10156,-0.34375 0.15625,-0.625 0.15625,-0.84375c0,-0.26954 -0.10937,-0.49219 -0.32812,-0.67188c-0.21094,-0.1875 -0.52734,-0.28125 -0.95312,-0.28125c-0.46094,0 -0.82032,0.09375 -1.07813,0.28125c-0.26172,0.1875 -0.4375,0.45313 -0.53125,0.79688zm2.40625,2.32812c-0.15625,0.04297 -0.35937,0.08594 -0.60937,0.125c-1.27344,0.14844 -2.10157,0.36719 -2.48438,0.65625c-0.27344,0.21875 -0.40625,0.50781 -0.40625,0.85938c0,0.29296 0.10156,0.54296 0.3125,0.75c0.20703,0.19921 0.48828,0.29687 0.84375,0.29687c0.375,0 0.72656,-0.08594 1.0625,-0.26562c0.34375,-0.1875 0.59766,-0.42579 0.76563,-0.71875c0.16406,-0.28907 0.3125,-0.74219 0.4375,-1.35938l0.07812,-0.34375zm0,0"/>
  <path id="svg_9" d="m45.62789,26.73678l2.70312,-12.89063l2.51563,0l-2.6875,12.89063l-2.53125,0zm0,0"/>
  <path id="svg_10" d="m57.63622,17.39303l2.40625,0l-0.25,1.21875c0.59375,-0.51954 1.14844,-0.89063 1.67187,-1.10938c0.51954,-0.21875 1.06641,-0.32812 1.64063,-0.32812c0.76953,0 1.375,0.21875 1.8125,0.65625c0.44531,0.4375 0.67187,1.02343 0.67187,1.75c0,0.33593 -0.10156,0.96093 -0.29687,1.875l-1.09375,5.28125l-2.53125,0l1.10937,-5.29688c0.16407,-0.78906 0.25,-1.26562 0.25,-1.42187c0,-0.32032 -0.10156,-0.57813 -0.29687,-0.76563c-0.1875,-0.1875 -0.44922,-0.28125 -0.78125,-0.28125c-0.375,0 -0.78906,0.15625 -1.23438,0.46875c-0.44921,0.3125 -0.80468,0.72656 -1.0625,1.23438c-0.1875,0.36718 -0.40234,1.10937 -0.64062,2.23437l-0.79688,3.82813l-2.53125,0l1.95313,-9.34375zm0,0"/>
  <path id="svg_11" d="m67.02898,22.86178c0,-1.72657 0.48437,-3.10938 1.45312,-4.14063c0.97657,-1.03125 2.26563,-1.54687 3.85938,-1.54687c1.375,0 2.44531,0.38281 3.21875,1.14062c0.78125,0.76172 1.17187,1.78125 1.17187,3.0625c0,1.51172 -0.48437,2.82031 -1.45312,3.92188c-0.96875,1.10546 -2.26563,1.65625 -3.89063,1.65625c-0.875,0 -1.65625,-0.17188 -2.34375,-0.51563c-0.67968,-0.35156 -1.18359,-0.85156 -1.51562,-1.5c-0.33594,-0.64453 -0.5,-1.33594 -0.5,-2.07812zm7.1875,-1.8125c0,-0.59375 -0.17969,-1.06641 -0.53125,-1.42188c-0.34375,-0.36328 -0.79297,-0.54687 -1.34375,-0.54687c-0.54297,0 -1.02734,0.16796 -1.45313,0.5c-0.41796,0.33593 -0.74609,0.82421 -0.98437,1.46875c-0.23047,0.64843 -0.34375,1.23437 -0.34375,1.76562c0,0.67969 0.17969,1.21484 0.54687,1.60938c0.36329,0.38671 0.82032,0.57812 1.375,0.57812c0.6875,0 1.26563,-0.29687 1.73438,-0.89062c0.66406,-0.83204 1,-1.85157 1,-3.0625zm0,0"/>
  <path id="svg_12" d="m82.32796,26.73678l-2.17187,0l-1.875,-9.34375l2.48437,0l0.65625,4.07812c0.1875,1.10547 0.29688,1.83984 0.32813,2.20313c0.0391,-0.10157 0.24219,-0.48438 0.60937,-1.14063c0.36329,-0.66406 0.58594,-1.06641 0.67188,-1.20312l2.3125,-3.9375l2.73437,0l-5.75,9.34375zm0,0"/>
  <path id="svg_13" d="m96.76696,22.84615l-6.32812,0c-0.0117,0.10547 -0.0156,0.18359 -0.0156,0.23438c0,0.61718 0.17578,1.11718 0.53125,1.5c0.36328,0.38671 0.79688,0.57812 1.29688,0.57812c0.84375,0 1.5,-0.4375 1.96875,-1.3125l2.26562,0.39063c-0.44922,0.90625 -1.04297,1.58984 -1.78125,2.04687c-0.73047,0.44922 -1.55469,0.67188 -2.46875,0.67188c-1.25,0 -2.27344,-0.39454 -3.0625,-1.1875c-0.78125,-0.78907 -1.17187,-1.84375 -1.17187,-3.15625c0,-1.28125 0.35156,-2.41407 1.0625,-3.40625c0.96875,-1.35157 2.34765,-2.03125 4.14062,-2.03125c1.14453,0 2.05469,0.35546 2.73438,1.0625c0.67578,0.71093 1.01562,1.69921 1.01562,2.96875c0,0.60546 -0.0625,1.15234 -0.1875,1.64062l-0.00003,0zm-2.125,-1.53125c0.008,-0.11328 0.0156,-0.20312 0.0156,-0.26562c0,-0.6875 -0.15625,-1.20313 -0.46875,-1.54688c-0.3125,-0.35156 -0.73047,-0.53125 -1.25,-0.53125c-0.52344,0 -0.99219,0.19922 -1.40625,0.59375c-0.41797,0.39844 -0.69922,0.98047 -0.84375,1.75l3.95315,0zm0,0"/>
  <path id="svg_14" d="m97.67473,26.73678l2.70313,-12.89063l2.51562,0l-2.6875,12.89063l-2.53125,0zm0,0"/>
  <path id="svg_15" d="m8.63136,41.09576l-2.39063,0l0.21875,-1.01563c-0.46093,0.4375 -0.91406,0.75781 -1.35937,0.95313c-0.4375,0.1875 -0.9375,0.28125 -1.5,0.28125c-0.96094,0 -1.74219,-0.32813 -2.34375,-0.98438c-0.60547,-0.66406 -0.90625,-1.64062 -0.90625,-2.92187c0,-1.5 0.42187,-2.85157 1.26562,-4.0625c0.84375,-1.20704 1.96094,-1.8125 3.35938,-1.8125c1.25,0 2.1875,0.5 2.8125,1.5l1.01562,-4.82813l2.53125,0l-2.70312,12.89063zm-5.82813,-3.79688c0,0.66797 0.16407,1.1875 0.5,1.5625c0.34375,0.375 0.75782,0.5625 1.25,0.5625c0.45704,0 0.88282,-0.15625 1.28125,-0.46875c0.39454,-0.3125 0.71094,-0.78906 0.95313,-1.4375c0.23828,-0.64453 0.35937,-1.26562 0.35937,-1.85937c0,-0.67579 -0.18359,-1.22266 -0.54687,-1.64063c-0.36719,-0.41406 -0.78906,-0.625 -1.26563,-0.625c-0.74218,0 -1.35156,0.41406 -1.82812,1.23438c-0.46875,0.82421 -0.70313,1.71484 -0.70313,2.67187zm0,0"/>
  <path id="svg_16" d="m14.57099,34.40826l-2.45313,-0.21875c0.28125,-0.83204 0.76954,-1.48438 1.46875,-1.95313c0.69532,-0.46875 1.625,-0.70312 2.78125,-0.70312c1.19532,0 2.08204,0.24609 2.65625,0.73437c0.58204,0.48047 0.875,1.07031 0.875,1.76563c0,0.28125 -0.0273,0.58593 -0.0781,0.90625c-0.0547,0.3125 -0.22656,1.14062 -0.51563,2.48437c-0.25,1.11719 -0.375,1.89844 -0.375,2.34375c0,0.39844 0.0664,0.83984 0.20313,1.32813l-2.45313,0c-0.0937,-0.34375 -0.15625,-0.69532 -0.1875,-1.0625c-0.36718,0.41796 -0.78906,0.73437 -1.26562,0.95312c-0.48047,0.21875 -0.96484,0.32813 -1.45313,0.32813c-0.77343,0 -1.41406,-0.25 -1.92187,-0.75c-0.5,-0.50782 -0.75,-1.16407 -0.75,-1.96875c0,-0.88282 0.27344,-1.59375 0.82812,-2.125c0.55079,-0.53907 1.53907,-0.86719 2.96875,-0.98438c1.19532,-0.09375 2,-0.21094 2.40625,-0.35937c0.10157,-0.34375 0.15625,-0.625 0.15625,-0.84375c0,-0.26954 -0.10937,-0.49219 -0.32812,-0.67188c-0.21094,-0.1875 -0.52734,-0.28125 -0.95313,-0.28125c-0.46093,0 -0.82031,0.09375 -1.07812,0.28125c-0.26172,0.1875 -0.4375,0.45313 -0.53125,0.79688l-0.00002,0zm2.40625,2.32812c-0.15625,0.04297 -0.35938,0.08594 -0.60938,0.125c-1.27343,0.14844 -2.10156,0.36719 -2.48437,0.65625c-0.27344,0.21875 -0.40625,0.50781 -0.40625,0.85938c0,0.29296 0.10156,0.54296 0.3125,0.75c0.20703,0.19921 0.48828,0.29687 0.84375,0.29687c0.375,0 0.72656,-0.08594 1.0625,-0.26562c0.34375,-0.1875 0.59766,-0.42579 0.76562,-0.71875c0.16407,-0.28907 0.3125,-0.74219 0.4375,-1.35938l0.07813,-0.34375zm0,0"/>
  <path id="svg_17" d="m21.66623,33.62701l0.375,-1.875l1.23438,0l0.3125,-1.5l2.89062,-1.73438l-0.67187,3.23438l1.53125,0l-0.375,1.875l-1.54688,0l-0.82812,3.92187c-0.14844,0.71094 -0.21875,1.10938 -0.21875,1.20313c0,0.19921 0.0625,0.35546 0.1875,0.46875c0.125,0.10546 0.34766,0.15625 0.67187,0.15625c0.10157,0 0.37891,-0.01953 0.82813,-0.0625l-0.39063,1.875c-0.4375,0.08202 -0.88671,0.125 -1.34375,0.125c-0.88671,0 -1.53125,-0.17188 -1.9375,-0.51563c-0.40625,-0.34375 -0.60937,-0.81641 -0.60937,-1.42187c0,-0.28907 0.10937,-0.95704 0.32812,-2l0.78125,-3.75l-1.21875,0zm0,0"/>
  <path id="svg_18" d="m30.58607,34.40826l-2.45313,-0.21875c0.28125,-0.83204 0.76954,-1.48438 1.46875,-1.95313c0.69532,-0.46875 1.625,-0.70312 2.78125,-0.70312c1.19532,0 2.08204,0.24609 2.65625,0.73437c0.58204,0.48047 0.875,1.07031 0.875,1.76563c0,0.28125 -0.0273,0.58593 -0.0781,0.90625c-0.0547,0.3125 -0.22656,1.14062 -0.51563,2.48437c-0.25,1.11719 -0.375,1.89844 -0.375,2.34375c0,0.39844 0.0664,0.83984 0.20313,1.32813l-2.45313,0c-0.0937,-0.34375 -0.15625,-0.69532 -0.1875,-1.0625c-0.36718,0.41796 -0.78906,0.73437 -1.26562,0.95312c-0.48047,0.21875 -0.96484,0.32813 -1.45313,0.32813c-0.77343,0 -1.41406,-0.25 -1.92187,-0.75c-0.5,-0.50782 -0.75,-1.16407 -0.75,-1.96875c0,-0.88282 0.27344,-1.59375 0.82812,-2.125c0.55079,-0.53907 1.53907,-0.86719 2.96875,-0.98438c1.19532,-0.09375 2,-0.21094 2.40625,-0.35937c0.10157,-0.34375 0.15625,-0.625 0.15625,-0.84375c0,-0.26954 -0.10937,-0.49219 -0.32812,-0.67188c-0.21096,-0.1875 -0.52736,-0.28125 -0.95315,-0.28125c-0.46093,0 -0.82031,0.09375 -1.07812,0.28125c-0.26172,0.1875 -0.4375,0.45313 -0.53125,0.79688zm2.40625,2.32812c-0.15625,0.04297 -0.35938,0.08594 -0.60938,0.125c-1.27343,0.14844 -2.10156,0.36719 -2.48437,0.65625c-0.27344,0.21875 -0.40625,0.50781 -0.40625,0.85938c0,0.29296 0.10156,0.54296 0.3125,0.75c0.20703,0.19921 0.48828,0.29687 0.84375,0.29687c0.375,0 0.72656,-0.08594 1.0625,-0.26562c0.34375,-0.1875 0.59766,-0.42579 0.76562,-0.71875c0.16407,-0.28907 0.3125,-0.74219 0.4375,-1.35938l0.07813,-0.34375zm0,0"/>
  <path id="svg_19" d="m36.97819,41.09576l2.6875,-12.89063l2.53125,0l-0.90625,4.3125c0.46875,-0.35156 0.89844,-0.60156 1.29687,-0.75c0.40625,-0.15625 0.84375,-0.23437 1.3125,-0.23437c0.98829,0 1.78125,0.33593 2.375,1c0.59375,0.65625 0.89063,1.61718 0.89063,2.875c0,0.84375 -0.14063,1.66796 -0.42188,2.46875c-0.28125,0.80468 -0.65625,1.45312 -1.125,1.95312c-0.46093,0.5 -0.94921,0.875 -1.46875,1.125c-0.51171,0.23828 -1.04687,0.35938 -1.60937,0.35938c-1.33594,0 -2.32031,-0.58594 -2.95313,-1.76563l-0.3125,1.54688l-2.29687,0zm3.40625,-3.8125c0,0.625 0.17578,1.13671 0.53125,1.53125c0.35156,0.39843 0.76953,0.59375 1.25,0.59375c0.41406,0 0.81641,-0.14844 1.20312,-0.45313c0.38282,-0.3125 0.70313,-0.80078 0.95313,-1.46875c0.25781,-0.66406 0.39062,-1.33594 0.39062,-2.01562c0,-0.66407 -0.17187,-1.1875 -0.51562,-1.5625c-0.34375,-0.38282 -0.76172,-0.57813 -1.25,-0.57813c-0.625,0 -1.16797,0.29688 -1.625,0.89063c-0.625,0.80468 -0.9375,1.82421 -0.9375,3.0625zm0,0"/>
  <path id="svg_20" d="m51.60533,34.40826l-2.45313,-0.21875c0.28125,-0.83204 0.76954,-1.48438 1.46875,-1.95313c0.69532,-0.46875 1.625,-0.70312 2.78125,-0.70312c1.19532,0 2.08204,0.24609 2.65625,0.73437c0.58204,0.48047 0.875,1.07031 0.875,1.76563c0,0.28125 -0.0273,0.58593 -0.0781,0.90625c-0.0547,0.3125 -0.22656,1.14062 -0.51563,2.48437c-0.25,1.11719 -0.375,1.89844 -0.375,2.34375c0,0.39844 0.0664,0.83984 0.20313,1.32813l-2.45313,0c-0.0937,-0.34375 -0.15625,-0.69532 -0.1875,-1.0625c-0.36718,0.41796 -0.78906,0.73437 -1.26562,0.95312c-0.48047,0.21875 -0.96484,0.32813 -1.45313,0.32813c-0.77343,0 -1.41406,-0.25 -1.92187,-0.75c-0.5,-0.50782 -0.75,-1.16407 -0.75,-1.96875c0,-0.88282 0.27344,-1.59375 0.82812,-2.125c0.55079,-0.53907 1.53907,-0.86719 2.96875,-0.98438c1.19532,-0.09375 2,-0.21094 2.40625,-0.35937c0.10157,-0.34375 0.15625,-0.625 0.15625,-0.84375c0,-0.26954 -0.10937,-0.49219 -0.32812,-0.67188c-0.21094,-0.1875 -0.52734,-0.28125 -0.95313,-0.28125c-0.46093,0 -0.82031,0.09375 -1.07812,0.28125c-0.26172,0.1875 -0.4375,0.45313 -0.53125,0.79688l-0.00002,0zm2.40625,2.32812c-0.15625,0.04297 -0.35938,0.08594 -0.60938,0.125c-1.27343,0.14844 -2.10156,0.36719 -2.48437,0.65625c-0.27344,0.21875 -0.40625,0.50781 -0.40625,0.85938c0,0.29296 0.10156,0.54296 0.3125,0.75c0.20703,0.19921 0.48828,0.29687 0.84375,0.29687c0.375,0 0.72656,-0.08594 1.0625,-0.26562c0.34375,-0.1875 0.59766,-0.42579 0.76562,-0.71875c0.16407,-0.28907 0.3125,-0.74219 0.4375,-1.35938l0.07813,-0.34375zm0,0"/>
  <path id="svg_21" d="m57.73179,38.48638l2.45313,-0.39062c0.21875,0.52343 0.48828,0.89062 0.8125,1.10937c0.32031,0.21094 0.75781,0.3125 1.3125,0.3125c0.57031,0 1.03125,-0.12891 1.375,-0.39062c0.25,-0.17579 0.375,-0.39063 0.375,-0.64063c0,-0.17578 -0.0625,-0.32812 -0.1875,-0.45312c-0.13672,-0.13282 -0.48438,-0.29688 -1.04688,-0.48438c-1.53125,-0.5 -2.48046,-0.89453 -2.84375,-1.1875c-0.5625,-0.45703 -0.84375,-1.05469 -0.84375,-1.79687c0,-0.73829 0.27344,-1.375 0.82813,-1.90625c0.76953,-0.75 1.91016,-1.125 3.42187,-1.125c1.19532,0 2.10157,0.21875 2.71875,0.65625c0.61329,0.4375 1.00391,1.03906 1.17188,1.79687l-2.32813,0.39063c-0.125,-0.33204 -0.32421,-0.58594 -0.59375,-0.76563c-0.375,-0.21875 -0.82812,-0.32812 -1.35937,-0.32812c-0.53125,0 -0.91406,0.08984 -1.14063,0.26562c-0.23046,0.16797 -0.34375,0.36719 -0.34375,0.59375c0,0.24219 0.11329,0.43359 0.34375,0.57813c0.14454,0.09375 0.61719,0.26171 1.42188,0.5c1.22656,0.35546 2.05078,0.70312 2.46875,1.04687c0.59375,0.49219 0.89062,1.07813 0.89062,1.76563c0,0.88671 -0.375,1.65625 -1.125,2.3125c-0.74218,0.64843 -1.79296,0.96875 -3.15625,0.96875c-1.34375,0 -2.38671,-0.24219 -3.125,-0.73438c-0.73046,-0.5 -1.23046,-1.19531 -1.5,-2.09375zm0,0"/>
  <path id="svg_22" d="m77.17082,37.20513l-6.32813,0c-0.0117,0.10547 -0.0156,0.18359 -0.0156,0.23438c0,0.61718 0.17578,1.11718 0.53125,1.5c0.36328,0.38671 0.79687,0.57812 1.29687,0.57812c0.84375,0 1.5,-0.4375 1.96875,-1.3125l2.26563,0.39063c-0.44922,0.90625 -1.04297,1.58984 -1.78125,2.04687c-0.73047,0.44922 -1.55469,0.67188 -2.46875,0.67188c-1.25,0 -2.27344,-0.39454 -3.0625,-1.1875c-0.78125,-0.78907 -1.17188,-1.84375 -1.17188,-3.15625c0,-1.28125 0.35157,-2.41407 1.0625,-3.40625c0.96875,-1.35157 2.34766,-2.03125 4.14063,-2.03125c1.14453,0 2.05469,0.35546 2.73437,1.0625c0.67579,0.71093 1.01563,1.69921 1.01563,2.96875c0,0.60546 -0.0625,1.15234 -0.1875,1.64062l-0.00002,0zm-2.125,-1.53125c0.008,-0.11328 0.0156,-0.20312 0.0156,-0.26562c0,-0.6875 -0.15625,-1.20313 -0.46875,-1.54688c-0.3125,-0.35156 -0.73046,-0.53125 -1.25,-0.53125c-0.52343,0 -0.99218,0.19922 -1.40625,0.59375c-0.41796,0.39844 -0.69921,0.98047 -0.84375,1.75l3.95315,0zm0,0"/>
 </g>
</svg>